<?xml version="1.0" encoding="utf-8"?>
<!-- Generator: Adobe Illustrator 16.0.0, SVG Export Plug-In . SVG Version: 6.00 Build 0)  -->
<!DOCTYPE svg PUBLIC "-//W3C//DTD SVG 1.1//EN" "http://www.w3.org/Graphics/SVG/1.1/DTD/svg11.dtd">
<svg version="1.1" id="Camada_1" xmlns="http://www.w3.org/2000/svg" xmlns:xlink="http://www.w3.org/1999/xlink" x="0px" y="0px"
	 width="841.89px" height="359px" viewBox="0 0 841.89 359" enable-background="new 0 0 841.89 359" xml:space="preserve">
<path fill="#0183A3" d="M42.071,289.503c23.52,34.841,57.528,25.181,57.528,25.181c29.391-90.489,54.428-198.256,104.633-231.765
	c9.662-6.449,31.798-9.07,35.866-6.48C143.6,14.996,97.18,178.848,49.692,272.229"/>
<path fill="#0183A3" d="M241.839,84.431c12.748,40.575,24.088,86.19,40.36,120.701c9.681,24.037,25.154,44.157,44.281,57.829
	c-76.124,7.398-132.744-159.796-132.744-159.796C220.405,75.2,241.839,84.431,241.839,84.431"/>
<path fill="#0183A3" d="M251.137,228.899c-61.857,5.705-124.352,2.054-142.094,87.273c8.931-8.505,15.56-14.902,24.131-21.437
	c40.189-30.637,124.112-23.298,186.797-24.529c-0.141-0.062-0.289-0.122-0.431-0.184c-9.052-1.865-19.604-3.581-27.413-6.824
	C275.841,256.435,264.319,245.111,251.137,228.899"/>
<path fill="#0183A3" d="M357.582,268.08c-2.12-0.227-3.885-0.611-5.299-1.159c-1.415-0.544-2.554-1.107-3.421-1.683
	c-0.867-0.579-1.486-1.084-1.856-1.52c-0.369-0.435-0.569-0.665-0.6-0.7l-0.098-0.146l0.145-0.14
	c0.289-0.419,0.626-0.74,1.011-0.968c0.321-0.191,0.658-0.289,1.012-0.289c0.386,0,0.836,0.129,1.349,0.387
	c0.256,0.098,0.507,0.2,0.748,0.313c0.241,0.113,0.52,0.25,0.843,0.411c0.642,0.254,1.388,0.505,2.24,0.743
	c0.851,0.243,1.886,0.412,3.108,0.509c0.127,0.032,0.305,0.047,0.53,0.047c1.092,0.063,2.04-0.03,2.842-0.289
	c0.803-0.259,1.478-0.579,2.024-0.963c0.546-0.419,0.971-0.885,1.276-1.397c0.306-0.514,0.49-1.045,0.554-1.589
	c0-0.067,0.008-0.146,0.026-0.243c0.015-0.094,0.023-0.176,0.023-0.239c0-0.869-0.24-1.671-0.722-2.411
	c-0.481-0.705-1.172-1.347-2.073-1.926c-0.898-0.611-1.936-1.163-3.106-1.664c-1.174-0.497-2.386-0.987-3.639-1.468
	c-1.188-0.45-2.216-0.987-3.083-1.613s-1.591-1.327-2.168-2.098c-1.188-1.574-1.735-3.309-1.639-5.203
	c0-0.192,0.008-0.383,0.024-0.579c0.015-0.192,0.041-0.399,0.072-0.627c0.257-1.444,0.748-2.665,1.47-3.66
	c0.722-0.994,1.566-1.785,2.529-2.36c0.965-0.61,1.983-1.029,3.059-1.253c1.077-0.227,2.112-0.32,3.109-0.29
	c0.256,0,0.434,0.017,0.53,0.048c2.12,0.16,3.895,0.505,5.324,1.037c1.429,0.528,2.578,1.101,3.445,1.711
	c0.45,0.289,0.82,0.571,1.108,0.842c0.29,0.273,0.53,0.524,0.724,0.748c0.223,0.258,0.417,0.48,0.578,0.673l0.095,0.191
	l-0.095,0.146c-0.321,0.419-0.66,0.724-1.012,0.916c-0.161,0.129-0.329,0.211-0.507,0.242c-0.177,0.031-0.36,0.047-0.554,0.047
	c-0.225,0-0.433-0.031-0.627-0.097c-0.191-0.063-0.417-0.142-0.673-0.239c-0.546-0.259-1.092-0.497-1.638-0.725
	c-0.644-0.255-1.39-0.513-2.241-0.771c-0.852-0.254-1.887-0.43-3.109-0.528c-0.064,0-0.127-0.008-0.191-0.023
	c-0.065-0.016-0.13-0.023-0.192-0.023c-1.415-0.067-2.588,0.223-3.518,0.865c-0.965,0.611-1.542,1.413-1.736,2.412
	c-0.064,0.32-0.096,0.544-0.096,0.673c0,0.74,0.194,1.366,0.58,1.879c0.383,0.513,0.945,0.994,1.685,1.444
	c0.706,0.419,1.501,0.795,2.386,1.132c0.883,0.34,1.773,0.685,2.674,1.037c1.252,0.481,2.44,1.045,3.564,1.687
	c1.125,0.643,2.12,1.382,2.989,2.216c0.834,0.838,1.501,1.777,1.998,2.819c0.497,1.045,0.715,2.223,0.65,3.543v0.36
	c0,0.112-0.016,0.25-0.047,0.411c-0.194,1.636-0.667,3.057-1.421,4.263c-0.755,1.206-1.679,2.191-2.771,2.963
	c-1.093,0.803-2.289,1.382-3.59,1.734c-1.3,0.353-2.578,0.513-3.831,0.481c-0.127-0.031-0.256-0.047-0.385-0.047H357.582z"/>
<path fill="#0183A3" d="M400.031,238.109c1.478,1.479,2.642,3.315,3.494,5.516c0.849,2.2,1.276,4.619,1.276,7.254
	c0,2.6-0.427,5.012-1.276,7.227c-0.852,2.216-2.016,4.063-3.494,5.54c-1.478,1.479-3.181,2.603-5.107,3.374
	c-1.928,0.771-3.999,1.154-6.216,1.154c-2.216,0-4.289-0.384-6.215-1.154c-1.928-0.771-3.631-1.896-5.109-3.374
	c-1.477-1.477-2.642-3.324-3.491-5.54c-0.852-2.215-1.279-4.627-1.279-7.227c0-2.635,0.427-5.054,1.279-7.254
	c0.849-2.2,2.014-4.036,3.491-5.516c1.478-1.477,3.181-2.607,5.109-3.398c1.926-0.787,3.999-1.178,6.215-1.178
	c2.217,0,4.288,0.391,6.216,1.178C396.85,235.502,398.553,236.633,400.031,238.109 M395.212,261.284
	c0.932-0.994,1.695-2.361,2.29-4.095c0.593-1.734,0.891-3.836,0.891-6.311c0-2.474-0.298-4.584-0.891-6.338
	c-0.595-1.75-1.358-3.124-2.29-4.118c-0.932-0.995-1.967-1.703-3.106-2.122c-1.141-0.415-2.273-0.627-3.398-0.627
	c-1.124,0-2.257,0.212-3.396,0.627c-1.141,0.419-2.177,1.127-3.109,2.122c-0.931,0.994-1.695,2.368-2.288,4.118
	c-0.595,1.754-0.892,3.864-0.892,6.338c0,2.475,0.297,4.576,0.892,6.311c0.593,1.733,1.357,3.101,2.288,4.095
	c0.932,0.998,1.968,1.703,3.109,2.122c1.139,0.419,2.272,0.626,3.396,0.626c1.125,0,2.257-0.207,3.398-0.626
	C393.245,262.987,394.28,262.282,395.212,261.284"/>
<path fill="#0183A3" d="M412.799,263.551c-1.542-1.448-2.754-3.214-3.639-5.301c-0.882-2.086-1.325-4.451-1.325-7.081v-0.677
	c0-2.632,0.443-4.996,1.325-7.082c0.885-2.087,2.097-3.872,3.639-5.349c1.542-1.443,3.3-2.56,5.275-3.351
	c1.977-0.786,4.056-1.178,6.24-1.178c0.836,0,1.702,0.09,2.601,0.266c0.901,0.176,1.768,0.423,2.604,0.744
	c0.834,0.321,1.62,0.709,2.36,1.159c0.738,0.449,1.38,0.963,1.928,1.542l0.144,0.141l-0.097,0.196
	c-0.288,0.48-0.595,0.834-0.916,1.057c-0.287,0.196-0.642,0.29-1.059,0.29c-0.354,0-0.74-0.063-1.157-0.192
	c-0.416-0.129-0.897-0.273-1.443-0.435c-0.548-0.16-1.175-0.305-1.879-0.43c-0.709-0.13-1.527-0.196-2.459-0.196
	c-0.898,0-1.959,0.188-3.179,0.556c-1.222,0.368-2.394,1.033-3.518,2c-1.125,0.963-2.072,2.271-2.844,3.928
	c-0.771,1.651-1.156,3.766-1.156,6.334v0.677c0,2.567,0.385,4.682,1.156,6.334c0.772,1.656,1.719,2.963,2.844,3.926
	c1.124,0.963,2.296,1.633,3.518,2.001c1.22,0.368,2.28,0.556,3.179,0.556c0.932,0,1.75-0.066,2.459-0.195
	c0.704-0.125,1.331-0.271,1.879-0.432c0.546-0.159,1.027-0.305,1.443-0.434c0.417-0.13,0.804-0.212,1.157-0.243
	c0.45,0,0.803,0.113,1.059,0.337c0.321,0.228,0.628,0.579,0.916,1.061l0.097,0.145l-0.144,0.146c-0.548,0.61-1.189,1.139-1.928,1.59
	c-0.74,0.45-1.526,0.837-2.36,1.158c-0.836,0.32-1.702,0.567-2.604,0.743c-0.898,0.177-1.765,0.267-2.601,0.267
	c-2.185,0-4.264-0.396-6.24-1.183C416.099,266.158,414.341,265.026,412.799,263.551"/>
<path fill="#0183A3" d="M438.673,265.477c-0.449-0.61-0.763-1.292-0.939-2.047c-0.176-0.756-0.265-1.504-0.265-2.24v-8.675v-12.092
	c0-0.74,0.089-1.476,0.265-2.216c0.177-0.74,0.49-1.413,0.939-2.024c0.45-0.609,1.043-1.107,1.783-1.495
	c0.738-0.384,1.654-0.575,2.746-0.575h0.29l-0.049,0.285v0.146v0.29c-0.031,0.16-0.058,0.355-0.072,0.579
	c-0.016,0.223-0.023,0.481-0.023,0.771c-0.033,0.576-0.064,1.309-0.097,2.193c-0.033,0.884-0.049,1.918-0.049,3.108v18.691
	c0,2.091,0.032,3.704,0.096,4.843c0.065,1.14,0.114,1.841,0.146,2.099v0.094l0.049,0.29h-0.29h-0.049
	c-1.06,0-1.959-0.184-2.697-0.556C439.716,266.577,439.123,266.088,438.673,265.477"/>
<path fill="#0183A3" d="M460.691,267.501c-1.219,0-2.329-0.039-3.324-0.121c-0.996-0.079-1.912-0.231-2.746-0.458
	c-0.836-0.224-1.572-0.498-2.217-0.819c-0.642-0.32-1.188-0.724-1.637-1.205c-0.579-0.642-1.045-1.429-1.397-2.36
	c-0.419-1.155-0.627-2.6-0.627-4.333v-15.565c0-2.216,0.354-3.935,1.06-5.156c0.642-1.154,1.606-1.992,2.891-2.505
	c0.417-0.161,0.852-0.298,1.302-0.411c0.448-0.109,0.933-0.199,1.444-0.263c0.676-0.065,1.382-0.113,2.12-0.145
	c0.74-0.031,1.511-0.046,2.313-0.046h5.107c2.088,0,3.701-0.028,4.842-0.075s1.838-0.086,2.096-0.121h0.097v-0.047h0.29v0.289
	c0,1.029-0.177,1.895-0.53,2.6c-0.386,0.611-0.899,1.096-1.543,1.448c-0.609,0.32-1.284,0.513-2.022,0.576
	c-0.739,0.065-1.478,0.098-2.217,0.098h-10.021c-0.258,0.031-0.516,0.113-0.771,0.242c-0.13,0.063-0.288,0.191-0.481,0.384
	c-0.192,0.352-0.274,0.885-0.241,1.589v6.507h6.022c2.089,0,3.702-0.023,4.844-0.075c1.139-0.047,1.838-0.086,2.096-0.116h0.096
	l0.049-0.052h0.288v0.29c0,0.549-0.057,1.029-0.169,1.444c-0.112,0.419-0.248,0.807-0.409,1.159
	c-0.193,0.352-0.419,0.642-0.675,0.865c-0.257,0.227-0.53,0.419-0.817,0.579c-0.645,0.32-1.325,0.513-2.049,0.579
	c-0.724,0.063-1.453,0.095-2.191,0.095h-7.084v4c0,0.739,0.04,1.397,0.122,1.974c0.078,0.579,0.199,1.096,0.359,1.542
	c0.321,0.806,0.771,1.448,1.35,1.93c0.514,0.415,1.084,0.689,1.71,0.818c0.627,0.129,1.245,0.176,1.855,0.146h1.444h3.663
	c2.088,0,3.701-0.031,4.842-0.099c1.141-0.063,1.838-0.109,2.096-0.145h0.097l0.29-0.047v0.29c0,1.028-0.177,1.895-0.53,2.599
	c-0.192,0.355-0.417,0.646-0.674,0.869c-0.258,0.223-0.548,0.419-0.869,0.58c-0.609,0.32-1.284,0.512-2.022,0.574
	c-0.739,0.067-1.478,0.099-2.217,0.099H460.691z"/>
<path fill="#0183A3" d="M500.925,237.964c1.701,1.445,3.019,3.23,3.95,5.349c0.931,2.122,1.396,4.549,1.396,7.276
	c0,2.858-0.488,5.371-1.47,7.54c-0.978,2.169-2.304,3.993-3.973,5.469c-1.672,1.479-3.584,2.604-5.735,3.374
	c-2.15,0.771-4.416,1.155-6.794,1.155c-2.474,0-4.496-0.207-6.069-0.626c-1.607-0.384-2.892-1.061-3.856-2.023
	c-0.609-0.643-1.076-1.413-1.396-2.314c-0.419-1.155-0.627-2.615-0.627-4.384v-16.72c0-1.123,0.089-2.103,0.265-2.937
	c0.177-0.838,0.44-1.574,0.795-2.22c0.354-0.643,0.771-1.162,1.253-1.565c0.48-0.399,1.043-0.729,1.687-0.986
	c0.417-0.16,0.851-0.29,1.301-0.385c0.449-0.097,0.931-0.176,1.445-0.241c0.643-0.063,1.333-0.114,2.071-0.146
	c0.74-0.031,1.527-0.047,2.363-0.047c2.696,0,5.187,0.376,7.467,1.131C497.278,235.42,499.253,236.521,500.925,237.964
	 M495.865,261.429c1.092-0.963,2.031-2.32,2.818-4.07c0.786-1.75,1.181-4.005,1.181-6.77c0-2.411-0.378-4.423-1.131-6.048
	c-0.757-1.621-1.761-2.928-3.014-3.926c-1.253-1.026-2.688-1.758-4.312-2.193c-1.623-0.434-3.318-0.649-5.083-0.649
	c-0.9,0-1.799,0.047-2.697,0.145c-0.323,0.032-0.595,0.114-0.82,0.239c-0.191,0.098-0.337,0.227-0.433,0.388
	c-0.129,0.16-0.209,0.375-0.243,0.649c-0.031,0.274-0.047,0.588-0.047,0.939v17.491c0,1.444,0.176,2.619,0.531,3.515
	c0.32,0.808,0.753,1.434,1.299,1.88c0.515,0.45,1.093,0.731,1.735,0.846c0.644,0.113,1.27,0.168,1.881,0.168h0.722
	c0.223,0,0.448-0.015,0.673-0.047h0.241c0.9,0,1.959-0.188,3.181-0.557C493.569,263.062,494.74,262.393,495.865,261.429"/>
<path fill="#0183A3" d="M538.892,267.501h-3.758c-0.387,0-0.74-0.063-1.062-0.192c-0.32-0.129-0.626-0.305-0.916-0.531
	c-0.288-0.255-0.546-0.545-0.769-0.866c-0.226-0.321-0.45-0.673-0.676-1.061c-0.45-0.803-0.844-1.702-1.181-2.697
	c-0.336-0.994-0.699-2.024-1.084-3.084c-0.064-0.192-0.145-0.415-0.241-0.675c-0.096-0.258-0.176-0.513-0.24-0.771h-11.469
	c-0.737,2.118-1.436,4.063-2.096,5.829c-0.658,1.766-1.165,3.069-1.517,3.903l-0.049,0.145h-0.192h-0.82
	c-1.027,0-1.813-0.114-2.36-0.337c-0.547-0.192-0.932-0.532-1.156-1.014c-0.128-0.254-0.192-0.575-0.192-0.964
	c0-0.449,0.072-0.931,0.217-1.443c0.146-0.513,0.346-1.062,0.602-1.642c0-0.03,0.018-0.094,0.049-0.19
	c0.031-0.063,0.065-0.146,0.096-0.239c0.031-0.098,0.08-0.212,0.146-0.337c0.096-0.258,0.217-0.571,0.362-0.938
	c0.145-0.372,0.295-0.779,0.458-1.23c0.352-0.931,0.753-1.984,1.203-3.155c0.45-1.174,0.916-2.402,1.397-3.687
	c0.481-1.285,0.963-2.569,1.445-3.856c0.482-1.284,0.938-2.485,1.374-3.614c0.434-1.122,0.81-2.109,1.131-2.963
	c0.32-0.85,0.562-1.499,0.724-1.949c0.513-1.351,1.012-2.399,1.494-3.155c0.481-0.755,0.947-1.343,1.397-1.762
	c0.448-0.384,0.842-0.635,1.181-0.743c0.336-0.114,0.585-0.169,0.745-0.169h0.145h0.146c0.161,0,0.4,0.055,0.722,0.169
	c0.321,0.108,0.707,0.359,1.157,0.743c0.417,0.419,0.858,1.007,1.325,1.762c0.466,0.756,0.955,1.805,1.47,3.155
	c0.191,0.513,0.537,1.405,1.036,2.674c0.497,1.268,1.076,2.744,1.733,4.431c0.658,1.688,1.366,3.488,2.12,5.399
	c0.755,1.91,1.478,3.75,2.168,5.516c0.691,1.765,1.318,3.382,1.879,4.842c0.563,1.46,1.005,2.576,1.326,3.348
	c0.064,0.165,0.121,0.298,0.168,0.41c0.049,0.114,0.088,0.217,0.121,0.313c0.032,0.13,0.063,0.224,0.096,0.29L538.892,267.501z
	 M527.327,252.852c-0.386-1.154-0.787-2.337-1.206-3.538c-0.417-1.206-0.802-2.338-1.154-3.398
	c-0.354-1.062-0.684-2.024-0.988-2.889c-0.305-0.869-0.538-1.542-0.699-2.024c-0.16,0.415-0.359,1.002-0.603,1.758
	c-0.24,0.755-0.528,1.613-0.867,2.576c-0.336,0.963-0.706,2.016-1.108,3.155c-0.4,1.143-0.81,2.306-1.229,3.496l-0.288,0.864
	H527.327z"/>
<path fill="#0183A3" d="M566.547,237.964c1.701,1.445,3.019,3.23,3.95,5.349c0.931,2.122,1.397,4.549,1.397,7.276
	c0,2.858-0.489,5.371-1.471,7.54c-0.978,2.169-2.304,3.993-3.973,5.469c-1.672,1.479-3.584,2.604-5.735,3.374
	c-2.15,0.771-4.416,1.155-6.794,1.155c-2.474,0-4.496-0.207-6.069-0.626c-1.607-0.384-2.892-1.061-3.856-2.023
	c-0.609-0.643-1.076-1.413-1.395-2.314c-0.42-1.155-0.627-2.615-0.627-4.384v-16.72c0-1.123,0.088-2.103,0.264-2.937
	c0.177-0.838,0.44-1.574,0.795-2.22c0.354-0.643,0.771-1.162,1.253-1.565c0.481-0.399,1.043-0.729,1.687-0.986
	c0.418-0.16,0.851-0.29,1.301-0.385c0.449-0.097,0.931-0.176,1.445-0.241c0.643-0.063,1.333-0.114,2.071-0.146
	c0.74-0.031,1.527-0.047,2.363-0.047c2.697,0,5.187,0.376,7.467,1.131C562.9,235.42,564.875,236.521,566.547,237.964
	 M561.487,261.429c1.092-0.963,2.032-2.32,2.819-4.07c0.785-1.75,1.18-4.005,1.18-6.77c0-2.411-0.378-4.423-1.132-6.048
	c-0.755-1.621-1.76-2.928-3.013-3.926c-1.253-1.026-2.688-1.758-4.312-2.193c-1.623-0.434-3.318-0.649-5.083-0.649
	c-0.901,0-1.799,0.047-2.697,0.145c-0.323,0.032-0.595,0.114-0.82,0.239c-0.191,0.098-0.337,0.227-0.433,0.388
	c-0.129,0.16-0.21,0.375-0.243,0.649c-0.031,0.274-0.047,0.588-0.047,0.939v17.491c0,1.444,0.176,2.619,0.531,3.515
	c0.321,0.808,0.753,1.434,1.299,1.88c0.515,0.45,1.093,0.731,1.735,0.846c0.644,0.113,1.27,0.168,1.881,0.168h0.722
	c0.223,0,0.448-0.015,0.673-0.047h0.241c0.9,0,1.959-0.188,3.181-0.557C559.191,263.062,560.362,262.393,561.487,261.429"/>
<path fill="#0183A3" d="M588.614,267.501c-1.22,0-2.329-0.039-3.324-0.121c-0.996-0.079-1.912-0.231-2.746-0.458
	c-0.836-0.224-1.573-0.498-2.217-0.819c-0.642-0.32-1.189-0.724-1.637-1.205c-0.579-0.642-1.046-1.429-1.397-2.36
	c-0.419-1.155-0.627-2.6-0.627-4.333v-15.565c0-2.216,0.354-3.935,1.059-5.156c0.643-1.154,1.607-1.992,2.892-2.505
	c0.417-0.161,0.852-0.298,1.302-0.411c0.448-0.109,0.932-0.199,1.444-0.263c0.676-0.065,1.382-0.113,2.12-0.145
	c0.739-0.031,1.511-0.046,2.313-0.046h5.107c2.088,0,3.701-0.028,4.842-0.075s1.838-0.086,2.096-0.121h0.097v-0.047h0.289v0.289
	c0,1.029-0.176,1.895-0.529,2.6c-0.387,0.611-0.899,1.096-1.543,1.448c-0.609,0.32-1.284,0.513-2.022,0.576
	c-0.74,0.065-1.478,0.098-2.218,0.098h-10.021c-0.257,0.031-0.515,0.113-0.771,0.242c-0.13,0.063-0.288,0.191-0.482,0.384
	c-0.191,0.352-0.273,0.885-0.24,1.589v6.507h6.022c2.089,0,3.702-0.023,4.843-0.075c1.14-0.047,1.839-0.086,2.097-0.116h0.096
	l0.049-0.052h0.288v0.29c0,0.549-0.057,1.029-0.169,1.444c-0.113,0.419-0.248,0.807-0.409,1.159
	c-0.193,0.352-0.419,0.642-0.675,0.865c-0.257,0.227-0.531,0.419-0.818,0.579c-0.644,0.32-1.324,0.513-2.048,0.579
	c-0.724,0.063-1.454,0.095-2.191,0.095h-7.084v4c0,0.739,0.04,1.397,0.122,1.974c0.077,0.579,0.198,1.096,0.359,1.542
	c0.321,0.806,0.771,1.448,1.35,1.93c0.514,0.415,1.084,0.689,1.71,0.818c0.627,0.129,1.245,0.176,1.855,0.146h1.444h3.663
	c2.088,0,3.701-0.031,4.842-0.099c1.141-0.063,1.838-0.109,2.096-0.145h0.097l0.289-0.047v0.29c0,1.028-0.176,1.895-0.529,2.599
	c-0.192,0.355-0.417,0.646-0.674,0.869c-0.259,0.223-0.549,0.419-0.869,0.58c-0.609,0.32-1.284,0.512-2.022,0.574
	c-0.74,0.067-1.478,0.099-2.218,0.099H588.614z"/>
<path fill="#0183A3" d="M650.095,261.405c0,0.626,0.016,1.292,0.047,2c0.03,0.705,0.064,1.421,0.096,2.146
	c0.033,0.72,0.08,1.37,0.146,1.949h-0.288c-1.093,0-2.009-0.185-2.748-0.557c-0.738-0.368-1.333-0.856-1.781-1.468
	c-0.45-0.61-0.764-1.284-0.94-2.024c-0.178-0.738-0.266-1.475-0.266-2.215v-19.754v-1.733l-7.467,18.112
	c-0.965,0.228-1.879,0.243-2.746,0.052c-0.772-0.16-1.566-0.571-2.386-1.229s-1.552-1.758-2.193-3.3
	c-0.256-0.611-0.634-1.511-1.131-2.701c-0.499-1.187-1.022-2.463-1.566-3.829c-0.548-1.366-1.084-2.697-1.614-4.001
	c-0.53-1.299-0.955-2.353-1.276-3.155v1.785v19.754c0,0.74-0.09,1.477-0.267,2.215c-0.176,0.74-0.488,1.414-0.939,2.024
	c-0.45,0.611-1.043,1.1-1.783,1.468c-0.738,0.372-1.636,0.557-2.697,0.557h-0.337c0.063-0.579,0.112-1.229,0.144-1.949
	c0.033-0.726,0.064-1.441,0.098-2.146c0.031-0.708,0.047-1.374,0.047-2v-1.519v-25.68l0.194-0.048
	c0.192-0.031,0.417-0.083,0.673-0.145c0.225-0.063,0.474-0.114,0.748-0.146c0.272-0.03,0.585-0.047,0.939-0.047
	c0.707,0,1.478,0.086,2.313,0.263c0.834,0.18,1.685,0.541,2.552,1.085c0.867,0.548,1.703,1.374,2.506,2.481s1.51,2.45,2.12,4.024
	l3.903,10.456l3.855-10.456c0.608-1.574,1.315-2.917,2.119-4.024s1.64-1.934,2.507-2.481c0.866-0.544,1.726-0.905,2.577-1.085
	c0.85-0.177,1.612-0.263,2.288-0.263c0.353,0,0.665,0.017,0.939,0.047c0.271,0.031,0.522,0.082,0.748,0.146
	c0.256,0.062,0.48,0.113,0.673,0.145l0.194,0.048v25.68V261.405z"/>
<path fill="#0183A3" d="M657.803,265.477c-0.45-0.61-0.764-1.292-0.94-2.047c-0.176-0.756-0.264-1.504-0.264-2.24v-8.675v-12.092
	c0-0.74,0.088-1.476,0.264-2.216c0.177-0.74,0.49-1.413,0.94-2.024c0.449-0.609,1.043-1.107,1.783-1.495
	c0.737-0.384,1.653-0.575,2.745-0.575h0.29l-0.049,0.285v0.146v0.29c-0.031,0.16-0.057,0.355-0.072,0.579
	c-0.016,0.223-0.023,0.481-0.023,0.771c-0.033,0.576-0.064,1.309-0.096,2.193c-0.033,0.884-0.05,1.918-0.05,3.108v18.691
	c0,2.091,0.032,3.704,0.097,4.843c0.064,1.14,0.113,1.841,0.145,2.099v0.094l0.049,0.29h-0.29h-0.049
	c-1.059,0-1.959-0.184-2.696-0.556C658.846,266.577,658.252,266.088,657.803,265.477"/>
<path fill="#0183A3" d="M694.468,234.112v0.286v0.34c0,0.126-0.008,0.263-0.023,0.407s-0.023,0.329-0.023,0.556
	c0,0.451-0.009,0.995-0.025,1.637c-0.016,0.643-0.04,1.413-0.071,2.313v27.803c-1.478,0.45-2.924,0.512-4.337,0.191
	c-0.61-0.129-1.236-0.344-1.879-0.65c-0.642-0.305-1.284-0.739-1.928-1.303c-0.642-0.561-1.261-1.269-1.854-2.118
	c-0.595-0.849-1.133-1.903-1.614-3.155c-0.964-2.412-1.92-4.818-2.867-7.227c-0.948-2.411-1.791-4.58-2.529-6.506
	c-0.867-2.247-1.719-4.416-2.555-6.506l-0.047,21.057c0,0.74-0.072,1.476-0.218,2.216c-0.145,0.74-0.441,1.413-0.89,2.024
	c-0.451,0.609-1.038,1.1-1.76,1.468c-0.722,0.371-1.631,0.555-2.724,0.555h-0.287l0.047-0.242v-1.3
	c0.031-0.45,0.049-0.994,0.049-1.636s0.016-1.413,0.047-2.314v-27.802l0.194-0.047c0.191-0.031,0.417-0.082,0.675-0.145
	c0.224-0.063,0.482-0.113,0.77-0.146c0.289-0.031,0.61-0.047,0.966-0.047c0.673,0,1.429,0.086,2.264,0.263
	c0.834,0.181,1.686,0.54,2.553,1.084c0.867,0.549,1.638,1.305,2.313,2.268s1.317,2.23,1.928,3.805l7.949,20.286l0.049-21.104
	c0-0.739,0.064-1.476,0.191-2.216c0.13-0.739,0.418-1.413,0.867-2.023c0.45-0.611,1.045-1.108,1.783-1.496
	c0.74-0.383,1.638-0.575,2.699-0.575H694.468z"/>
<path fill="#0183A3" d="M712.634,267.501c-1.219,0-2.329-0.039-3.324-0.121c-0.996-0.079-1.912-0.231-2.746-0.458
	c-0.836-0.224-1.573-0.498-2.217-0.819c-0.642-0.32-1.188-0.724-1.637-1.205c-0.579-0.642-1.045-1.429-1.397-2.36
	c-0.419-1.155-0.627-2.6-0.627-4.333v-15.565c0-2.216,0.354-3.935,1.06-5.156c0.642-1.154,1.606-1.992,2.891-2.505
	c0.417-0.161,0.852-0.298,1.302-0.411c0.448-0.109,0.933-0.199,1.444-0.263c0.676-0.065,1.382-0.113,2.12-0.145
	c0.74-0.031,1.511-0.046,2.313-0.046h5.107c2.088,0,3.701-0.028,4.842-0.075s1.838-0.086,2.096-0.121h0.097v-0.047h0.29v0.289
	c0,1.029-0.177,1.895-0.53,2.6c-0.386,0.611-0.899,1.096-1.543,1.448c-0.609,0.32-1.284,0.513-2.022,0.576
	c-0.739,0.065-1.478,0.098-2.217,0.098h-10.021c-0.258,0.031-0.516,0.113-0.771,0.242c-0.129,0.063-0.288,0.191-0.481,0.384
	c-0.192,0.352-0.274,0.885-0.241,1.589v6.507h6.022c2.089,0,3.702-0.023,4.844-0.075c1.139-0.047,1.838-0.086,2.096-0.116h0.096
	l0.049-0.052h0.288v0.29c0,0.549-0.057,1.029-0.169,1.444c-0.113,0.419-0.248,0.807-0.409,1.159
	c-0.193,0.352-0.419,0.642-0.675,0.865c-0.257,0.227-0.531,0.419-0.818,0.579c-0.644,0.32-1.324,0.513-2.048,0.579
	c-0.724,0.063-1.454,0.095-2.191,0.095h-7.084v4c0,0.739,0.04,1.397,0.122,1.974c0.078,0.579,0.198,1.096,0.359,1.542
	c0.321,0.806,0.771,1.448,1.35,1.93c0.514,0.415,1.084,0.689,1.71,0.818c0.627,0.129,1.245,0.176,1.855,0.146h1.444h3.663
	c2.088,0,3.701-0.031,4.842-0.099c1.141-0.063,1.838-0.109,2.096-0.145h0.097l0.29-0.047v0.29c0,1.028-0.177,1.895-0.53,2.599
	c-0.192,0.355-0.417,0.646-0.674,0.869c-0.258,0.223-0.548,0.419-0.869,0.58c-0.609,0.32-1.284,0.512-2.022,0.574
	c-0.739,0.067-1.478,0.099-2.217,0.099H712.634z"/>
<path fill="#0183A3" d="M730.702,265.477c-0.45-0.61-0.763-1.292-0.94-2.047c-0.176-0.756-0.264-1.504-0.264-2.24v-8.675v-12.092
	c0-0.74,0.088-1.476,0.264-2.216c0.178-0.74,0.49-1.413,0.94-2.024c0.45-0.609,1.043-1.107,1.783-1.495
	c0.737-0.384,1.653-0.575,2.746-0.575h0.29l-0.05,0.285v0.146v0.29c-0.03,0.16-0.057,0.355-0.071,0.579
	c-0.017,0.223-0.024,0.481-0.024,0.771c-0.033,0.576-0.063,1.309-0.096,2.193c-0.033,0.884-0.049,1.918-0.049,3.108v18.691
	c0,2.091,0.031,3.704,0.096,4.843c0.064,1.14,0.114,1.841,0.145,2.099v0.094l0.05,0.29h-0.29h-0.05
	c-1.059,0-1.959-0.184-2.696-0.556C731.745,266.577,731.152,266.088,730.702,265.477"/>
<path fill="#0183A3" d="M766.164,267.501h-0.29c-1.06,0-1.937-0.185-2.625-0.557c-0.691-0.367-1.263-0.856-1.711-1.468
	c-0.45-0.61-0.764-1.284-0.939-2.023c-0.178-0.74-0.266-1.477-0.266-2.217c0-0.868-0.065-1.619-0.192-2.266
	c-0.129-0.642-0.29-1.186-0.481-1.637c-0.194-0.45-0.386-0.811-0.579-1.084c-0.192-0.274-0.353-0.475-0.482-0.604
	c-0.417-0.449-0.882-0.751-1.396-0.916c-0.226-0.062-0.441-0.102-0.65-0.116c-0.209-0.017-0.393-0.028-0.554-0.028h-8.528v5.591
	c0,2.09,0.031,3.703,0.096,4.842c0.064,1.14,0.113,1.84,0.146,2.099v0.094l0.049,0.29h-0.29h-0.049c-1.06,0-1.959-0.185-2.697-0.557
	c-0.74-0.367-1.333-0.856-1.783-1.468c-0.451-0.61-0.764-1.284-0.939-2.023c-0.176-0.74-0.265-1.477-0.265-2.217v-18.598v-0.239
	c0.031-1.448,0.207-2.649,0.528-3.616c0.321-0.964,0.771-1.75,1.352-2.361c0.608-0.642,1.314-1.123,2.119-1.444
	c0.803-0.32,1.669-0.545,2.602-0.674c0.642-0.065,1.292-0.113,1.951-0.145c0.657-0.031,1.325-0.048,2.001-0.048
	c0.866,0,1.853,0.079,2.961,0.239c1.109,0.161,2.226,0.436,3.349,0.818c1.126,0.388,2.193,0.909,3.205,1.565
	c1.011,0.662,1.871,1.505,2.577,2.529c0.481,0.709,0.867,1.488,1.157,2.337c0.29,0.854,0.449,1.793,0.481,2.819v0.387
	c0.031,1.637-0.29,3.117-0.963,4.433c-0.676,1.318-1.623,2.41-2.844,3.275c0.258,0.192,0.482,0.396,0.675,0.604
	c0.194,0.212,0.385,0.427,0.579,0.649c0.867,1.03,1.5,2.243,1.903,3.638c0.4,1.396,0.617,2.932,0.649,4.604
	c0.031,0.9,0.057,1.671,0.072,2.313c0.016,0.642,0.024,1.186,0.024,1.637c0,0.227,0.007,0.418,0.024,0.579
	c0.017,0.16,0.024,0.29,0.024,0.384v0.336V267.501z M759.899,247.121c0.29-0.771,0.434-1.703,0.434-2.795
	c0-0.611-0.065-1.159-0.192-1.641c-0.129-0.481-0.306-0.916-0.531-1.3c-0.417-0.74-1.043-1.351-1.879-1.832
	c-0.802-0.446-1.718-0.752-2.746-0.916c-1.027-0.157-2.088-0.239-3.181-0.239c-0.481,0-0.955,0.009-1.421,0.024
	c-0.465,0.015-0.923,0.039-1.372,0.074c-0.194,0.03-0.354,0.063-0.481,0.094c-0.129,0.031-0.242,0.082-0.339,0.145
	c-0.191,0.099-0.337,0.228-0.432,0.388c-0.13,0.161-0.21,0.368-0.241,0.627c-0.033,0.254-0.049,0.559-0.049,0.912v9.83h6.263
	c1.543,0,2.858-0.271,3.952-0.819C758.679,249.094,759.418,248.245,759.899,247.121"/>
<path fill="#0183A3" d="M799.986,267.501h-3.758c-0.386,0-0.74-0.063-1.062-0.192c-0.32-0.129-0.626-0.305-0.916-0.531
	c-0.288-0.255-0.546-0.545-0.769-0.866c-0.225-0.321-0.45-0.673-0.676-1.061c-0.45-0.803-0.844-1.702-1.181-2.697
	c-0.337-0.994-0.698-2.024-1.084-3.084c-0.064-0.192-0.145-0.415-0.24-0.675c-0.097-0.258-0.177-0.513-0.241-0.771h-11.468
	c-0.738,2.118-1.438,4.063-2.097,5.829c-0.658,1.766-1.165,3.069-1.517,3.903l-0.049,0.145h-0.192h-0.82
	c-1.027,0-1.813-0.114-2.36-0.337c-0.546-0.192-0.932-0.532-1.156-1.014c-0.128-0.254-0.192-0.575-0.192-0.964
	c0-0.449,0.072-0.931,0.218-1.443c0.145-0.513,0.345-1.062,0.601-1.642c0-0.03,0.018-0.094,0.049-0.19
	c0.031-0.063,0.065-0.146,0.097-0.239c0.03-0.098,0.079-0.212,0.145-0.337c0.096-0.258,0.217-0.571,0.362-0.938
	c0.145-0.372,0.295-0.779,0.458-1.23c0.352-0.931,0.753-1.984,1.204-3.155c0.449-1.174,0.916-2.402,1.396-3.687
	c0.482-1.285,0.963-2.569,1.445-3.856c0.482-1.284,0.938-2.485,1.374-3.614c0.434-1.122,0.81-2.109,1.131-2.963
	c0.321-0.85,0.562-1.499,0.724-1.949c0.514-1.351,1.013-2.399,1.494-3.155c0.481-0.755,0.947-1.343,1.397-1.762
	c0.448-0.384,0.842-0.635,1.181-0.743c0.336-0.114,0.585-0.169,0.745-0.169h0.145h0.146c0.161,0,0.4,0.055,0.722,0.169
	c0.321,0.108,0.707,0.359,1.157,0.743c0.417,0.419,0.859,1.007,1.325,1.762c0.466,0.756,0.955,1.805,1.47,3.155
	c0.192,0.513,0.536,1.405,1.036,2.674c0.497,1.268,1.076,2.744,1.733,4.431c0.657,1.688,1.366,3.488,2.12,5.399
	c0.755,1.91,1.478,3.75,2.168,5.516c0.691,1.765,1.318,3.382,1.88,4.842s1.005,2.576,1.325,3.348
	c0.064,0.165,0.121,0.298,0.168,0.41c0.05,0.114,0.089,0.217,0.121,0.313c0.032,0.13,0.063,0.224,0.097,0.29L799.986,267.501z
	 M788.423,252.852c-0.387-1.154-0.787-2.337-1.206-3.538c-0.417-1.206-0.803-2.338-1.155-3.398
	c-0.354-1.062-0.683-2.024-0.988-2.889c-0.305-0.869-0.538-1.542-0.699-2.024c-0.159,0.415-0.359,1.002-0.603,1.758
	c-0.24,0.755-0.528,1.613-0.867,2.576c-0.336,0.963-0.706,2.016-1.107,3.155c-0.401,1.143-0.811,2.306-1.229,3.496l-0.288,0.864
	H788.423z"/>
<path fill="#0183A3" d="M551.419,286.146c1.701,1.444,3.018,3.229,3.95,5.348c0.931,2.122,1.396,4.549,1.396,7.277
	c0,2.857-0.489,5.371-1.47,7.54c-0.979,2.169-2.304,3.993-3.973,5.469c-1.673,1.479-3.585,2.603-5.735,3.374
	c-2.151,0.771-4.416,1.155-6.794,1.155c-2.474,0-4.496-0.207-6.07-0.626c-1.606-0.385-2.891-1.062-3.855-2.024
	c-0.609-0.642-1.076-1.413-1.396-2.314c-0.419-1.154-0.627-2.614-0.627-4.384v-16.72c0-1.123,0.088-2.102,0.264-2.936
	c0.178-0.839,0.441-1.574,0.795-2.221c0.354-0.642,0.771-1.162,1.254-1.564c0.48-0.4,1.043-0.729,1.687-0.987
	c0.417-0.16,0.851-0.29,1.3-0.384c0.45-0.098,0.932-0.176,1.446-0.242c0.642-0.063,1.333-0.114,2.071-0.146
	c0.739-0.031,1.526-0.047,2.362-0.047c2.697,0,5.188,0.376,7.468,1.132C547.771,283.603,549.747,284.702,551.419,286.146
	 M546.358,309.611c1.093-0.963,2.032-2.321,2.819-4.071c0.786-1.75,1.18-4.005,1.18-6.769c0-2.411-0.378-4.423-1.131-6.048
	c-0.756-1.621-1.76-2.929-3.013-3.927c-1.253-1.025-2.689-1.758-4.313-2.192c-1.622-0.435-3.317-0.65-5.083-0.65
	c-0.899,0-1.799,0.047-2.696,0.146c-0.323,0.031-0.596,0.113-0.82,0.238c-0.192,0.099-0.337,0.228-0.433,0.389
	c-0.129,0.159-0.209,0.375-0.243,0.648c-0.031,0.275-0.047,0.588-0.047,0.94v17.491c0,1.443,0.176,2.618,0.53,3.515
	c0.321,0.807,0.754,1.433,1.3,1.879c0.515,0.451,1.093,0.732,1.734,0.846c0.645,0.113,1.271,0.168,1.881,0.168h0.723
	c0.223,0,0.448-0.015,0.673-0.047h0.241c0.899,0,1.959-0.188,3.181-0.556C544.063,311.243,545.233,310.574,546.358,309.611"/>
<path fill="#0183A3" d="M574.449,315.683c-1.22,0-2.329-0.039-3.324-0.121c-0.996-0.079-1.912-0.23-2.746-0.458
	c-0.836-0.224-1.573-0.498-2.217-0.818c-0.643-0.321-1.189-0.725-1.638-1.205c-0.579-0.643-1.045-1.429-1.396-2.361
	c-0.419-1.155-0.627-2.599-0.627-4.333v-15.564c0-2.217,0.353-3.936,1.059-5.156c0.643-1.155,1.607-1.993,2.892-2.505
	c0.416-0.161,0.852-0.298,1.302-0.411c0.448-0.11,0.932-0.2,1.443-0.263c0.677-0.066,1.383-0.113,2.12-0.146
	c0.74-0.031,1.512-0.046,2.314-0.046h5.106c2.089,0,3.701-0.028,4.843-0.075c1.141-0.047,1.838-0.086,2.096-0.121h0.096v-0.047h0.29
	v0.289c0,1.03-0.176,1.896-0.53,2.6c-0.386,0.611-0.898,1.097-1.543,1.448c-0.608,0.321-1.283,0.514-2.021,0.576
	c-0.74,0.066-1.479,0.098-2.218,0.098h-10.021c-0.257,0.031-0.515,0.113-0.771,0.242c-0.13,0.063-0.288,0.192-0.482,0.384
	c-0.191,0.353-0.273,0.886-0.241,1.59v6.507h6.023c2.089,0,3.702-0.024,4.843-0.075c1.139-0.047,1.838-0.086,2.096-0.117h0.097
	l0.049-0.051h0.288v0.29c0,0.548-0.058,1.029-0.169,1.444c-0.113,0.419-0.248,0.807-0.409,1.158
	c-0.194,0.353-0.419,0.643-0.675,0.865c-0.257,0.228-0.531,0.419-0.818,0.579c-0.644,0.321-1.325,0.513-2.048,0.58
	c-0.724,0.062-1.454,0.094-2.192,0.094h-7.084v4c0,0.74,0.04,1.398,0.122,1.975c0.078,0.578,0.199,1.096,0.36,1.542
	c0.321,0.806,0.771,1.447,1.349,1.93c0.515,0.415,1.084,0.688,1.71,0.818c0.627,0.129,1.245,0.176,1.856,0.145h1.443h3.663
	c2.089,0,3.701-0.031,4.843-0.098c1.141-0.063,1.838-0.11,2.096-0.146h0.096l0.29-0.047v0.29c0,1.029-0.176,1.895-0.53,2.599
	c-0.191,0.356-0.417,0.646-0.674,0.869c-0.258,0.224-0.548,0.419-0.869,0.58c-0.608,0.321-1.283,0.512-2.021,0.575
	c-0.74,0.067-1.479,0.098-2.218,0.098H574.449z"/>
<path fill="#0183A3" d="M609.236,311.733c-1.542-1.448-2.754-3.215-3.639-5.302c-0.882-2.086-1.325-4.45-1.325-7.081v-0.677
	c0-2.631,0.443-4.996,1.325-7.082c0.885-2.087,2.097-3.872,3.639-5.348c1.542-1.444,3.301-2.561,5.275-3.352
	c1.977-0.785,4.056-1.178,6.24-1.178c0.836,0,1.703,0.09,2.601,0.267c0.901,0.176,1.769,0.423,2.604,0.743
	c0.834,0.321,1.619,0.709,2.359,1.159c0.738,0.45,1.38,0.963,1.929,1.542l0.143,0.142l-0.096,0.195
	c-0.289,0.481-0.596,0.834-0.916,1.058c-0.288,0.195-0.643,0.29-1.06,0.29c-0.354,0-0.74-0.063-1.156-0.192
	s-0.898-0.274-1.444-0.435c-0.548-0.16-1.174-0.306-1.879-0.431c-0.709-0.13-1.527-0.195-2.459-0.195
	c-0.898,0-1.959,0.188-3.179,0.556c-1.222,0.368-2.394,1.033-3.518,2c-1.125,0.963-2.072,2.271-2.844,3.927
	c-0.771,1.652-1.156,3.767-1.156,6.334v0.677c0,2.568,0.385,4.683,1.156,6.334c0.771,1.656,1.719,2.964,2.844,3.927
	c1.124,0.963,2.296,1.633,3.518,2.001c1.22,0.368,2.28,0.556,3.179,0.556c0.932,0,1.75-0.067,2.459-0.196
	c0.705-0.125,1.331-0.27,1.879-0.431c0.546-0.16,1.028-0.305,1.444-0.434c0.416-0.131,0.803-0.213,1.156-0.243
	c0.45,0,0.804,0.112,1.06,0.337c0.32,0.227,0.627,0.579,0.916,1.06l0.096,0.146l-0.143,0.145c-0.549,0.611-1.19,1.14-1.929,1.59
	c-0.74,0.45-1.525,0.837-2.359,1.158c-0.836,0.321-1.703,0.568-2.604,0.744c-0.897,0.176-1.765,0.266-2.601,0.266
	c-2.185,0-4.264-0.395-6.24-1.182C612.537,314.34,610.778,313.209,609.236,311.733"/>
<path fill="#0183A3" d="M646.191,316.263c-2.184,0-4.04-0.321-5.564-0.964c-1.526-0.646-2.771-1.511-3.734-2.603
	s-1.662-2.322-2.097-3.688c-0.435-1.361-0.65-2.782-0.65-4.263c0-5.813-0.025-10.425-0.072-13.827
	c-0.049-3.405-0.09-5.75-0.121-7.033c-0.031-0.229-0.047-0.412-0.047-0.557v-0.408v-0.34v-0.286h0.24
	c1.091,0,2.007,0.192,2.747,0.576c0.738,0.387,1.333,0.884,1.783,1.495c0.447,0.611,0.761,1.284,0.938,2.024
	c0.177,0.739,0.266,1.476,0.266,2.216v16.093c0,0.544,0.022,1.131,0.071,1.758c0.049,0.626,0.168,1.245,0.362,1.855
	c0.192,0.642,0.474,1.229,0.842,1.758c0.37,0.528,0.875,0.971,1.52,1.327c0.447,0.223,0.955,0.407,1.517,0.552
	c0.562,0.146,1.229,0.219,2,0.219c0.738,0,1.398-0.073,1.975-0.219c0.577-0.145,1.077-0.329,1.493-0.552
	c0.836-0.45,1.463-1.077,1.88-1.879c0.416-0.74,0.684-1.542,0.795-2.411c0.113-0.866,0.169-1.668,0.169-2.408v-16.093
	c0-0.74,0.079-1.477,0.241-2.216c0.159-0.74,0.465-1.413,0.914-2.024c0.45-0.611,1.044-1.108,1.783-1.495
	c0.738-0.384,1.654-0.576,2.747-0.576h0.289l-0.049,0.286v1.305c-0.031,0.449-0.047,0.993-0.047,1.636
	c0,0.642-0.018,1.413-0.05,2.313c-0.032,1.833-0.063,4.139-0.095,6.914c-0.034,2.779-0.049,6.111-0.049,9.998
	c0,1.48-0.218,2.901-0.65,4.263c-0.435,1.366-1.133,2.597-2.097,3.688c-0.963,1.092-2.2,1.957-3.709,2.603
	C650.222,315.941,648.375,316.263,646.191,316.263"/>
<path fill="#0183A3" d="M673.461,316.31c-1.703,0-3.212-0.306-4.528-0.916c-1.318-0.611-2.441-1.445-3.373-2.505
	c-0.933-1.026-1.639-2.24-2.12-3.638s-0.723-2.9-0.723-4.506c0-3.887-0.01-7.219-0.024-9.998c-0.017-2.775-0.039-5.081-0.073-6.914
	c-0.031-0.899-0.055-1.671-0.07-2.313c-0.018-0.643-0.025-1.187-0.025-1.637c0-0.228-0.007-0.411-0.023-0.556
	c-0.018-0.145-0.023-0.282-0.023-0.407v-0.341v-0.286h0.288c1.061,0,1.959,0.192,2.698,0.576c0.738,0.387,1.333,0.884,1.783,1.495
	c0.449,0.611,0.762,1.284,0.94,2.024c0.176,0.739,0.264,1.476,0.264,2.216v16.766c0,0.803,0.057,1.504,0.169,2.095
	c0.113,0.596,0.266,1.119,0.458,1.566c0.321,0.708,0.698,1.264,1.133,1.663c0.433,0.404,0.873,0.717,1.323,0.939
	c0.45,0.228,0.869,0.372,1.253,0.435c0.385,0.063,0.706,0.098,0.965,0.098c0.643,0,1.229-0.074,1.757-0.219
	c0.531-0.146,1.038-0.297,1.52-0.458c0.482-0.16,0.939-0.321,1.372-0.482c0.435-0.159,0.86-0.237,1.279-0.237
	c0.48,0,0.897,0.108,1.252,0.336c0.318,0.191,0.688,0.576,1.107,1.154l0.097,0.146l-0.146,0.192c-1.059,1.127-2.321,2.023-3.781,2.7
	c-1.463,0.674-3.027,1.011-4.698,1.011H673.461z"/>
<path fill="#0183A3" d="M708.876,282.052v0.29c0,1.029-0.179,1.894-0.53,2.599c-0.386,0.611-0.901,1.097-1.543,1.448
	c-0.61,0.321-1.284,0.513-2.024,0.576c-0.737,0.065-1.478,0.098-2.215,0.098h-3.854v2.604v18.692c0,2.09,0.03,3.703,0.095,4.843
	c0.064,1.139,0.112,1.84,0.145,2.099v0.094v0.289h-0.289c-1.093,0-1.999-0.184-2.723-0.556c-0.722-0.368-1.309-0.857-1.758-1.468
	c-0.45-0.61-0.763-1.284-0.939-2.024c-0.178-0.739-0.266-1.475-0.266-2.215v-20.815c0-0.258,0.007-0.513,0.025-0.771
	c0.016-0.258,0.039-0.514,0.071-0.771h-2.458c-2.089,0-3.709,0.031-4.865,0.099c-1.157,0.062-1.863,0.108-2.12,0.145h-0.097
	l-0.098,0.046l-0.096-0.097c-0.031-0.032-0.046-0.063-0.046-0.094c-0.034,0-0.05-0.032-0.05-0.099c0-1.061,0.191-1.926,0.577-2.603
	c0.354-0.607,0.852-1.089,1.493-1.445c0.645-0.321,1.326-0.521,2.05-0.603c0.723-0.078,1.452-0.117,2.192-0.117h11.997
	c2.088,0,3.701-0.028,4.842-0.075c1.139-0.047,1.838-0.086,2.096-0.121h0.097v-0.047H708.876z"/>
<path fill="#0183A3" d="M723.234,316.263c-2.184,0-4.04-0.321-5.564-0.964c-1.526-0.646-2.771-1.511-3.734-2.603
	s-1.662-2.322-2.097-3.688c-0.435-1.361-0.65-2.782-0.65-4.263c0-5.813-0.024-10.425-0.072-13.827
	c-0.049-3.405-0.09-5.75-0.12-7.033c-0.032-0.229-0.048-0.412-0.048-0.557v-0.408v-0.34v-0.286h0.24
	c1.091,0,2.007,0.192,2.747,0.576c0.738,0.387,1.333,0.884,1.783,1.495c0.448,0.611,0.761,1.284,0.938,2.024
	c0.177,0.739,0.266,1.476,0.266,2.216v16.093c0,0.544,0.022,1.131,0.071,1.758c0.05,0.626,0.169,1.245,0.362,1.855
	c0.192,0.642,0.475,1.229,0.842,1.758c0.37,0.528,0.875,0.971,1.52,1.327c0.448,0.223,0.955,0.407,1.517,0.552
	c0.562,0.146,1.229,0.219,2,0.219c0.738,0,1.398-0.073,1.976-0.219c0.577-0.145,1.077-0.329,1.493-0.552
	c0.836-0.45,1.463-1.077,1.879-1.879c0.417-0.74,0.684-1.542,0.795-2.411c0.113-0.866,0.169-1.668,0.169-2.408v-16.093
	c0-0.74,0.08-1.477,0.242-2.216c0.158-0.74,0.464-1.413,0.913-2.024c0.45-0.611,1.045-1.108,1.783-1.495
	c0.738-0.384,1.654-0.576,2.747-0.576h0.289l-0.049,0.286v1.305c-0.031,0.449-0.047,0.993-0.047,1.636
	c0,0.642-0.018,1.413-0.049,2.313c-0.033,1.833-0.064,4.139-0.096,6.914c-0.033,2.779-0.049,6.111-0.049,9.998
	c0,1.48-0.218,2.901-0.649,4.263c-0.436,1.366-1.134,2.597-2.098,3.688c-0.963,1.092-2.199,1.957-3.709,2.603
	C727.265,315.941,725.419,316.263,723.234,316.263"/>
<path fill="#0183A3" d="M766.164,315.683h-0.29c-1.06,0-1.937-0.184-2.625-0.556c-0.691-0.368-1.263-0.857-1.711-1.468
	c-0.45-0.611-0.764-1.284-0.939-2.024c-0.178-0.74-0.266-1.476-0.266-2.216c0-0.869-0.065-1.62-0.192-2.266
	c-0.129-0.643-0.29-1.187-0.481-1.638c-0.194-0.449-0.386-0.81-0.579-1.084c-0.192-0.273-0.353-0.474-0.482-0.603
	c-0.417-0.45-0.882-0.751-1.396-0.916c-0.226-0.063-0.441-0.103-0.65-0.117c-0.209-0.016-0.393-0.028-0.554-0.028h-8.528v5.592
	c0,2.09,0.031,3.702,0.096,4.842c0.064,1.139,0.113,1.84,0.146,2.098v0.094l0.049,0.29h-0.29h-0.049
	c-1.06,0-1.959-0.184-2.697-0.556c-0.74-0.368-1.333-0.857-1.783-1.468c-0.451-0.611-0.764-1.284-0.939-2.024
	s-0.265-1.476-0.265-2.216v-18.598v-0.239c0.031-1.449,0.207-2.65,0.528-3.617c0.321-0.963,0.771-1.75,1.352-2.361
	c0.608-0.642,1.314-1.122,2.119-1.443c0.803-0.321,1.669-0.545,2.602-0.674c0.642-0.066,1.292-0.113,1.951-0.146
	c0.657-0.031,1.325-0.047,2.001-0.047c0.866,0,1.853,0.079,2.961,0.239c1.109,0.161,2.226,0.435,3.349,0.817
	c1.126,0.389,2.193,0.909,3.205,1.566c1.011,0.662,1.871,1.504,2.577,2.529c0.481,0.709,0.867,1.487,1.157,2.337
	c0.29,0.854,0.449,1.793,0.481,2.818v0.388c0.031,1.637-0.29,3.117-0.963,4.432c-0.676,1.319-1.623,2.411-2.844,3.276
	c0.258,0.191,0.482,0.396,0.675,0.603c0.194,0.212,0.385,0.427,0.579,0.65c0.867,1.03,1.5,2.243,1.903,3.637
	c0.4,1.397,0.617,2.932,0.649,4.604c0.031,0.899,0.057,1.671,0.072,2.313c0.016,0.643,0.024,1.187,0.024,1.637
	c0,0.228,0.007,0.418,0.024,0.579c0.017,0.16,0.024,0.29,0.024,0.384v0.337V315.683z M759.899,295.303
	c0.29-0.771,0.434-1.703,0.434-2.795c0-0.61-0.065-1.159-0.192-1.64c-0.129-0.482-0.306-0.916-0.531-1.3
	c-0.417-0.74-1.043-1.352-1.879-1.832c-0.802-0.446-1.718-0.752-2.746-0.916c-1.027-0.157-2.088-0.239-3.181-0.239
	c-0.481,0-0.955,0.008-1.421,0.024c-0.465,0.015-0.923,0.038-1.372,0.073c-0.194,0.031-0.354,0.063-0.481,0.095
	c-0.129,0.03-0.242,0.082-0.339,0.145c-0.191,0.098-0.337,0.227-0.432,0.387c-0.13,0.161-0.21,0.368-0.241,0.627
	c-0.033,0.254-0.049,0.56-0.049,0.912v9.83h6.263c1.543,0,2.858-0.271,3.952-0.818C758.679,297.276,759.418,296.427,759.899,295.303
	"/>
<path fill="#0183A3" d="M799.988,315.683h-3.758c-0.386,0-0.74-0.063-1.062-0.191c-0.32-0.129-0.626-0.305-0.916-0.532
	c-0.288-0.255-0.546-0.545-0.769-0.866c-0.225-0.32-0.45-0.673-0.676-1.06c-0.45-0.803-0.844-1.703-1.181-2.698
	c-0.337-0.994-0.698-2.023-1.084-3.084c-0.064-0.191-0.145-0.415-0.24-0.674c-0.097-0.258-0.177-0.513-0.241-0.771h-11.468
	c-0.738,2.118-1.438,4.063-2.097,5.829c-0.658,1.767-1.165,3.069-1.517,3.903l-0.049,0.145h-0.192h-0.82
	c-1.027,0-1.813-0.113-2.36-0.337c-0.546-0.191-0.932-0.531-1.156-1.014c-0.128-0.254-0.192-0.575-0.192-0.963
	c0-0.45,0.072-0.931,0.218-1.444c0.145-0.513,0.345-1.061,0.601-1.641c0-0.031,0.018-0.094,0.049-0.191
	c0.031-0.063,0.065-0.145,0.096-0.238c0.031-0.099,0.08-0.212,0.146-0.337c0.096-0.259,0.217-0.571,0.362-0.939
	c0.145-0.372,0.295-0.779,0.458-1.23c0.352-0.931,0.753-1.983,1.204-3.154c0.449-1.174,0.916-2.403,1.396-3.688
	c0.482-1.284,0.963-2.568,1.445-3.855c0.482-1.284,0.938-2.486,1.374-3.614c0.434-1.123,0.81-2.11,1.131-2.963
	c0.321-0.851,0.562-1.499,0.724-1.95c0.514-1.35,1.012-2.399,1.494-3.155c0.481-0.755,0.947-1.343,1.397-1.762
	c0.448-0.383,0.842-0.634,1.181-0.743c0.336-0.114,0.585-0.169,0.745-0.169h0.145h0.146c0.161,0,0.4,0.055,0.722,0.169
	c0.321,0.109,0.707,0.36,1.157,0.743c0.417,0.419,0.859,1.007,1.325,1.762c0.466,0.756,0.955,1.806,1.47,3.155
	c0.192,0.513,0.536,1.406,1.036,2.674c0.497,1.269,1.076,2.744,1.733,4.433c0.657,1.687,1.366,3.486,2.12,5.397
	c0.755,1.91,1.478,3.75,2.168,5.517c0.691,1.765,1.318,3.382,1.879,4.842c0.563,1.46,1.006,2.576,1.326,3.347
	c0.064,0.165,0.121,0.298,0.168,0.411c0.05,0.114,0.088,0.216,0.121,0.313c0.032,0.131,0.063,0.225,0.097,0.29L799.988,315.683z
	 M788.424,301.034c-0.386-1.155-0.786-2.337-1.205-3.539c-0.418-1.206-0.803-2.337-1.155-3.398
	c-0.354-1.061-0.684-2.023-0.988-2.889c-0.305-0.869-0.538-1.542-0.699-2.023c-0.159,0.414-0.359,1.002-0.603,1.758
	c-0.24,0.755-0.528,1.612-0.867,2.576c-0.336,0.963-0.706,2.016-1.108,3.154c-0.4,1.144-0.81,2.307-1.229,3.496l-0.288,0.865
	H788.424z"/>
<path fill="#0183A3" d="M656.311,190.77l-8.531-127.084H623.53c-5.392,0-9.785,0.391-13.188,1.169
	c-3.403,0.781-6.168,2.021-8.295,3.723c-2.127,1.701-3.83,3.865-5.106,6.487c-1.275,2.626-2.339,5.78-3.189,9.466l-19.735,84.398
	L552.699,84.53c-0.852-3.686-1.881-6.84-3.085-9.466c-1.206-2.622-2.871-4.786-4.998-6.487c-2.127-1.702-4.893-2.942-8.296-3.723
	c-3.403-0.778-7.73-1.169-12.976-1.169H499.31l-1.924,31.254l-0.13,0.013l-6.492,94.475c-0.145,2.111-2.015,22.851-2.015,22.851
	l3.466,0.237c5.896,0.405,11.008,0.044,15.191-1.076c4.188-1.117,7.676-2.785,10.356-4.956c2.631-2.126,4.556-4.582,5.716-7.299
	c1.114-2.602,1.772-5.276,1.956-7.951l4.324-62.911l0.396-5.771l19.382,68.123c0.91,3.2,2.219,6.329,3.888,9.299
	c1.742,3.105,4.049,5.779,6.857,7.949c2.861,2.216,7.014,4.785,14.537,4.785c5.261,0,10.695-1.849,13.038-3.638
	c4.875-3.724,7.888-11.402,8.583-13.991l17.143-61.203l3.192-11.867l0.434,6.314l4.323,62.911c0.184,2.675,0.842,5.35,1.956,7.951
	c1.16,2.717,3.085,5.173,5.716,7.299c2.682,2.171,6.168,3.839,10.357,4.956c4.184,1.12,9.294,1.481,15.19,1.076l3.466-0.237
	C658.218,212.277,656.74,195.884,656.311,190.77"/>
<path fill="#0183A3" d="M477.633,149.11c-2.695-4.663-6.242-8.541-10.636-11.629c-4.396-3.088-9.432-5.487-15.102-7.204
	c-5.673-1.714-11.453-3.119-17.335-4.22c-5.887-1.097-11.666-2.058-17.336-2.882c-5.673-0.823-10.708-1.852-15.102-3.087
	c-4.397-1.235-7.943-2.811-10.635-4.734c-2.696-1.92-4.042-4.528-4.042-7.821c0-3.978,1.772-7.307,5.318-9.983
	c3.543-2.676,8.046-4.631,13.506-5.866c5.458-1.235,11.414-1.782,17.868-1.647c6.45,0.138,12.55,0.962,18.292,2.47
	c5.744,1.511,10.741,3.775,14.996,6.792c4.254,3.02,6.421,6.826,8.125,11.424l1.686,4.819c0,0,1.857-2.409,2.348-3.394
	c3.496-7.008,11.68-41.202-43.319-48.046c-4.019-0.5-7.412-0.411-10.104-0.411c-9.219,0-18.009,0.823-26.375,2.47
	c-8.369,1.646-15.74,4.322-22.121,8.027c-6.381,3.705-11.486,8.542-15.315,14.511c-3.828,5.97-5.743,13.208-5.743,21.715
	c0,7.275,1.346,13.347,4.042,18.216c2.692,4.872,6.201,8.922,10.528,12.145c4.324,3.225,9.286,5.73,14.89,7.512
	c5.6,1.785,11.273,3.261,17.016,4.425c5.743,1.167,11.413,2.129,17.017,2.881c5.599,0.756,10.561,1.718,14.889,2.882
	c2.937,0.792,5.486,1.731,7.672,2.808c2.015,1.814,3.036,4.099,3.036,6.871c0,4.039-1.928,7.419-5.787,10.136
	c-3.854,2.717-8.757,4.703-14.699,5.957c-5.939,1.253-12.42,1.809-19.444,1.671c-7.021-0.14-13.658-0.976-19.908-2.507
	c-6.25-1.535-11.689-3.834-16.319-6.897c-4.63-3.066-6.988-6.93-8.842-11.599l-1.835-4.893c0,0-2.02,2.446-2.555,3.445
	c-3.805,7.116-12.71,41.836,47.144,48.785c4.372,0.507,8.066,0.418,10.995,0.418c10.033,0,19.601-0.836,28.704-2.508
	c8.184-1.502,15.483-3.856,21.92-7.046c1.422-0.609,2.817-1.245,4.163-1.932c6.734-3.428,12.157-7.991,16.272-13.687
	c4.11-5.694,6.169-12.659,6.169-20.893C481.675,159.607,480.324,153.777,477.633,149.11"/>
<path fill="#0183A3" d="M798.259,164.188c-0.085-0.266-0.238-0.627-0.42-1.022c-10.711,16.233-29.301,24.582-48.8,24.582
	c-27.706,0-43.812-19.661-43.812-47.366v-3c0-20.174,11.686-38.825,29.082-45.525c4.27-1.498,8.758-2.123,13.537-2.418
	c6.345-0.389,12.251,0.339,18.019,1.414c5.769,1.078,10.87,2.989,15.308,5.734c4.436,2.747,6.89,6.473,8.958,11.049l2.068,4.804
	c0,0,1.616-2.623,2.015-3.673c2.83-7.477,7.925-43.224-46.66-45.72c-3.988-0.182-7.312,0.187-9.955,0.409
	c-2.244,0.188-4.456,0.426-6.639,0.713l0.007,0.079c-26.783,3.052-39.16,15.578-44.046,20.784
	c-6.207,6.619-21.607,23.806-22.169,53.03h-0.027c0,0.215,0.005,0.424,0.009,0.634h0.003c0.001,0.032,0.001,0.063,0.001,0.094
	c-0.002,0.305-0.013,0.603-0.013,0.911h0.027c0.562,29.225,12.512,45.149,18.72,51.768c5.674,6.047,23.044,22.585,59.254,22.617
	C794.492,214.133,800.903,172.463,798.259,164.188"/>
</svg>
